<svg xmlns="http://www.w3.org/2000/svg" viewBox="0 0 781.1 318.96">
    <defs>
        <style>
            .cls-1 {
                fill: #ffffff;
            }

            .cls-2,
            .cls-3 {
                fill: none;
            }

            .cls-3 {
                stroke: #ffffff;
                stroke-miterlimit: 10;
            }
        </style>
    </defs>
    <title>Relectric logo BW</title>
    <g id="R">
        <path class="cls-1"
            d="M53.47,343.66q5.53-4.32,11.39-8.25c3.9-2.61,7.87-5.14,12-7.46a192.49,192.49,0,0,1,25.62-12.15c4.44-1.69,9-3.16,13.44-4.57s8.91-2.78,13.32-4.23c8.82-2.91,17.55-6,26.28-9.24s17.39-6.55,25.85-10.13,16.82-7.49,25.06-11.61,16.32-8.53,24.31-13.11,15.73-9.45,23.84-14.39c4.06-2.45,8.26-4.9,12.66-7.16a115.4,115.4,0,0,1,43.06-12.46,129.19,129.19,0,0,1,15-.54l7,.19,7,.18c9.37.26,18.75.55,28.14.94s18.79.92,28.24,1.6,19,1.64,28.39,3S442.73,237,452,238.57s18.57,3.32,27.85,5l16.78,3.09-12.3,11.85q-8.31,8-16.5,16.09c-5.45,5.4-10.89,10.78-16.15,16.27q-4,4.1-7.73,8.26c-2.49,2.76-4.92,5.58-7,8.28-.26.33-.51.66-.8,1.06l-1,1.29c-.67.88-1.37,1.77-2.12,2.63a49.6,49.6,0,0,1-4.82,4.91,47.06,47.06,0,0,1-5.53,4.24,49.09,49.09,0,0,1-6.18,3.35l-.78.31a8,8,0,0,0,1-.39l-.08,0-.16.07-.28.13-.55.24-1.05.44c-.7.28-1.4.54-2.12.77a32.6,32.6,0,0,1-4.58,1.18,35.06,35.06,0,0,1-9.14.32,68,68,0,0,1-8-1.21c-2.5-.5-4.92-1.06-7.29-1.62-9.46-2.28-18.66-4.5-28-6.48s-18.73-3.84-28-5.11c-4.62-.63-9.49-1.12-14.35-1.79s-9.67-1.42-14.46-2.23q-14.35-2.46-28.55-5.4c-9.48-1.91-18.87-4-28.25-5.39a186.42,186.42,0,0,0-28.5-2.07c-4.79,0-9.59.09-14.39.36s-9.6.71-14.4,1.25c4.69-1.15,9.43-2.1,14.21-2.9s9.59-1.47,14.44-1.89a186.58,186.58,0,0,1,29.26-.57c9.79.7,19.38,2.07,28.94,3.24s19.1,2.35,28.62,3.36q7.14.74,14.24,1.3c4.72.38,9.47.59,14.44,1,9.94.77,19.55,2.29,29.17,3.82q7.21,1.15,14.4,2.53l14.21,2.8c2.35.46,4.65.89,6.88,1.26a53.14,53.14,0,0,0,6.35.71,20.93,20.93,0,0,0,5.26-.33,17.65,17.65,0,0,0,2.4-.71q.63-.23,1.26-.51l.6-.27.28-.14.13-.06,0,0h0a8.1,8.1,0,0,1,1.06-.45l-.77.31a33.36,33.36,0,0,0,3.91-2.3,29.85,29.85,0,0,0,3.56-2.92,33.68,33.68,0,0,0,3.18-3.45c.5-.62,1-1.26,1.46-1.93l.73-1.05.91-1.29c2.52-3.52,5.1-6.58,7.7-9.62s5.24-6,7.91-8.84q8-8.65,16.15-16.95T472,245.94l4.49,14.93q-13.69-2.3-27.37-4.67c-9.2-1.51-18.4-2.93-27.49-4.16s-18.17-2.22-27.34-2.93-18.45-1.22-27.72-1.73-18.57-.93-27.88-1.3l-7-.27-3.52-.14-3.5-.18a111,111,0,0,0-13,.18,107.42,107.42,0,0,0-25.43,5,103.22,103.22,0,0,0-12.06,4.84c-4,1.89-7.93,4-11.93,6.28-8,4.52-16.31,9.26-24.7,13.64s-16.95,8.52-25.62,12.37a415.74,415.74,0,0,1-53.33,19.33c-4.5,1.34-9,2.66-13.56,3.91s-9.1,2.42-13.67,3.54c-9.16,2.3-18.32,4.07-27.12,6.66A211.15,211.15,0,0,0,53.47,343.66Z"
            transform="translate(-10.01 -228.33)" />
        <path class="cls-1"
            d="M194.81,295.64a212.92,212.92,0,0,1,36.95-.62c6.2.44,12.26,1.13,18.26,1.63,3,.24,6,.5,9,.7s6.06.31,9.08.52l9.06.57c3,.21,6,.4,9.06.54,6.07.29,12,.57,18.06.68,1.54,0,3.13.07,4.78.18s3.22.29,4.83.43l9.13,1q9.1,1,18.28,2.26c6.12.89,12.27,1.85,18.57,3.27a74.77,74.77,0,0,1,9.68,2.91,33.69,33.69,0,0,1,5.14,2.47,18.88,18.88,0,0,1,5.27,4.48,14.71,14.71,0,0,1,3.14,7.54,17.23,17.23,0,0,1-.85,7.22,33.19,33.19,0,0,1-5.54,9.72A115.26,115.26,0,0,1,363.42,355c-4.6,4.19-9.28,8.15-14,12.07-2.35,1.95-4.7,3.92-7.13,5.85s-4.86,3.82-7.35,5.66a229.35,229.35,0,0,1-31.26,19.66c9.21-8.15,18.2-16.34,26.78-24.88,4.33-4.27,8.45-8.58,12.69-13s8.44-8.77,12.52-13.16c2-2.19,4-4.4,5.9-6.64a78.81,78.81,0,0,0,5.21-6.69,22.94,22.94,0,0,0,3.21-6.25,4,4,0,0,0,.17-1.8,1.46,1.46,0,0,0-.45-.74,7.8,7.8,0,0,0-1.78-1.28,19.62,19.62,0,0,0-3.15-1.38,62,62,0,0,0-7.9-2.11c-5.61-1.21-11.54-2.09-17.49-2.91s-12-1.62-18-2.42l-9-1.21c-1.42-.17-2.9-.37-4.28-.5s-2.84-.25-4.35-.34c-6.12-.4-12.37-.93-18.46-1.66s-12.21-1.6-18.3-2.47c-3.05-.43-6.09-.91-9.12-1.38s-6.08-1.05-9.11-1.67c-6.08-1.19-12-2.67-17.91-3.92C219,299.24,207,297.35,194.81,295.64Z"
            transform="translate(-10.01 -228.33)" />
        <path class="cls-2" d="M547.18,441.17" transform="translate(-10.01 -228.33)" />
    </g>
    <g id="electric_plug" data-name="electric + plug">
        <path class="cls-1"
            d="M34.35,376A59.87,59.87,0,0,0,48.82,388.4a48.66,48.66,0,0,0,8.31,4c.7.29,1.44.49,2.15.73s1.45.47,2.2.67c1.49.41,3,.79,4.51,1.11A44.12,44.12,0,0,0,74.75,396a12,12,0,0,0,3.43-.38c.4-.13.62-.3.63-.37s-.24.1-.32.14,0,0,0,0a.06.06,0,0,1,0-.06,2.66,2.66,0,0,1,0-.41,11.25,11.25,0,0,0-.13-1.34,18,18,0,0,0-1-3.54,41.52,41.52,0,0,0-3.75-7.48,43.56,43.56,0,0,0-11.16-12.21,17.74,17.74,0,0,0-6.16-2.83,11.62,11.62,0,0,0-1.37-.2h-.63a3.33,3.33,0,0,0-.63,0,7.86,7.86,0,0,0-2.48.65A16.38,16.38,0,0,0,46,371.8a37.8,37.8,0,0,0-4.83,6.38,89.64,89.64,0,0,0-7.67,16c-1.1,2.86-2.12,5.76-3.12,8.78s-1.81,5.79-2.54,8.7a87.89,87.89,0,0,0-2.65,17.51,60.42,60.42,0,0,0,1.6,17.09,49.26,49.26,0,0,0,6.89,15.39,45.18,45.18,0,0,0,5.49,6.55A76.06,76.06,0,0,0,46,474.09c2.45,1.91,5.05,3.74,7.68,5.63l3.88,2.74c1.3.89,2.61,1.75,3.93,2.61A164.22,164.22,0,0,0,96,501.7,115.56,115.56,0,0,1,57.76,492c-1.54-.67-3-1.39-4.55-2.13s-3-1.51-4.43-2.26c-2.89-1.51-5.78-3.09-8.7-4.81a73.46,73.46,0,0,1-8.61-5.89,51.63,51.63,0,0,1-7.78-7.59,66,66,0,0,1-6.14-9.05c-.81-1.63-1.63-3.28-2.39-4.94l-1.93-5.13A69.47,69.47,0,0,1,10,428.9,97.2,97.2,0,0,1,12.46,408c.79-3.38,1.75-6.76,2.79-10s2.09-6.36,3.3-9.55,2.58-6.36,4.12-9.51a79.93,79.93,0,0,1,5.22-9.32,52.63,52.63,0,0,1,7.19-8.83,29.94,29.94,0,0,1,10.8-7,23.17,23.17,0,0,1,14-.52A26.78,26.78,0,0,1,63,354.37a29.33,29.33,0,0,1,2.87,1.4,36.43,36.43,0,0,1,5,3.37,53.23,53.23,0,0,1,13.64,17.33,48.62,48.62,0,0,1,3.89,10.34,28.77,28.77,0,0,1,.88,6,17.75,17.75,0,0,1-.2,3.5,19.48,19.48,0,0,1-.47,2c-.12.35-.27.72-.42,1.07a6.8,6.8,0,0,1-.54,1.08q-.35.55-.72,1.08a9.23,9.23,0,0,1-.89,1,9.52,9.52,0,0,1-2,1.5,12,12,0,0,1-3.9,1.33,20.45,20.45,0,0,1-6.24-.08,50.11,50.11,0,0,1-10.21-2.87A66.19,66.19,0,0,1,54.44,398,49.28,49.28,0,0,1,46.16,392,50.87,50.87,0,0,1,34.35,376Z"
            transform="translate(-10.01 -228.33)" />
        <path class="cls-1"
            d="M204.73,426.39a74.39,74.39,0,0,0,23.13,7.75,58.34,58.34,0,0,0,11.77.56,51.72,51.72,0,0,0,11.29-2.07,52.9,52.9,0,0,0,10.47-4.52,61.07,61.07,0,0,0,9.38-6.4A37.37,37.37,0,0,0,278,414a13.68,13.68,0,0,0,1-1.86,5.45,5.45,0,0,0,.41-1.36c0-.27-.12-.23-.08.15a3,3,0,0,0,.24.74s-.39-.19-.83-.39a16.37,16.37,0,0,0-1.85-.59,33,33,0,0,0-5-.83,94.24,94.24,0,0,0-11.4-.38c-3.94.07-7.93.32-12,.58s-8.24.57-12.22.92c-8,.71-15.6,1.62-21.93,4.09a34.37,34.37,0,0,0-8.61,4.68,32.9,32.9,0,0,0-6.81,6.93c-3.86,5.18-6.1,11.81-7.84,19.51-.45,1.93-.89,3.89-1.33,5.91s-.85,3.95-1.23,5.89c-.76,3.87-1.33,7.7-1.77,11.5a68.9,68.9,0,0,0,.77,22,39.19,39.19,0,0,0,3.51,9.73,32.68,32.68,0,0,0,6,8.24c4.71,4.83,11.39,8.38,18.57,10.63,1.81.57,3.6,1,5.55,1.46a53.93,53.93,0,0,0,5.5.92,75.69,75.69,0,0,0,11.72.15c8.34-.33,16.7-.5,25-.42s16.68.35,25,.88q-12.35,2.13-24.62,4.12c-8.19,1.37-16.34,2.74-24.48,4.21a80.22,80.22,0,0,1-13.09,1.48,54,54,0,0,1-6.85-.33c-2.15-.22-4.44-.55-6.65-1a64.77,64.77,0,0,1-6.62-1.67,61.61,61.61,0,0,1-6.5-2.44A47.17,47.17,0,0,1,178,508.71a53.8,53.8,0,0,1-5.76-13.26c-2.65-9.19-3-18.52-2.42-27.43.29-4.46.89-8.85,1.6-13.13.36-2.14.75-4.25,1.15-6.32s.8-4.13,1.24-6.26a92.61,92.61,0,0,1,3.74-13.17,54.34,54.34,0,0,1,6.92-13.08,51.1,51.1,0,0,1,10.64-10.64,50.1,50.1,0,0,1,13.22-7,70.66,70.66,0,0,1,13.76-3.26c4.5-.64,8.87-1,13.14-1.15s8.37-.3,12.61-.42,8.54-.08,12.89.09a101.82,101.82,0,0,1,13.39,1.3,47.66,47.66,0,0,1,7.18,1.83,27.27,27.27,0,0,1,3.92,1.69,18.11,18.11,0,0,1,4.26,3.14,12.79,12.79,0,0,1,3.34,6,13.36,13.36,0,0,1-.19,6.3,21.81,21.81,0,0,1-4.18,7.79,46.77,46.77,0,0,1-10.67,9.46,67.56,67.56,0,0,1-11.94,6.31,60.51,60.51,0,0,1-12.94,3.71,57.31,57.31,0,0,1-13.39.5A58.49,58.49,0,0,1,226.68,439,64.53,64.53,0,0,1,204.73,426.39Z"
            transform="translate(-10.01 -228.33)" />
        <path class="cls-1"
            d="M428.28,436.9a64.57,64.57,0,0,0-5.85-11.77,59.94,59.94,0,0,0-7.83-10.08,58.65,58.65,0,0,0-4.59-4.22L407.54,409a10.73,10.73,0,0,0-1.27-.84l-1.3-.79-1.29-.79c-.44-.24-.9-.44-1.35-.67-.91-.43-1.78-.91-2.69-1.3a44.85,44.85,0,0,0-5.63-1.89l-1.42-.37-.71-.19-.72-.12-2.87-.47a42.82,42.82,0,0,0-5.77-.21,45.52,45.52,0,0,0-11.38,1.78,62.89,62.89,0,0,0-10.88,4.43c-1.76.93-3.49,1.9-5.19,3-.85.52-1.7,1.1-2.56,1.66l-1.33.88L350,414l-2.33,1.71c-.77.58-1.47,1.26-2.2,1.87a55.71,55.71,0,0,0-4.15,4,63.39,63.39,0,0,0-7.05,9.08A77,77,0,0,0,325,452c-.51,1.94-.94,3.83-1.42,5.93s-.91,4.13-1.27,6.11A77.49,77.49,0,0,0,321,475.7a52.46,52.46,0,0,0,3.43,21.6,49.88,49.88,0,0,0,5,9.55,54.73,54.73,0,0,0,7.15,8.41,44.32,44.32,0,0,0,18.29,10.94,18.76,18.76,0,0,0,2.58.66l2.62.6,2.67.3,1.33.16a12.18,12.18,0,0,0,1.35,0l2.72.06c.9,0,1.81-.13,2.73-.17a47.06,47.06,0,0,0,5.49-.69,57.65,57.65,0,0,0,10.91-3.31c1.82-.65,3.55-1.57,5.33-2.39.88-.44,1.72-1,2.59-1.42s1.73-.95,2.56-1.51l2.51-1.6,2.44-1.74c.84-.55,1.62-1.18,2.4-1.8s1.6-1.22,2.33-1.89a77.3,77.3,0,0,0,8.43-8.45,36.29,36.29,0,0,0,3.3-4.58c1-1.72,2.2-3.84,3.49-5.82s2.61-3.91,4-5.76,2.83-3.68,4.3-5.47a118.59,118.59,0,0,1,9.57-10,116.27,116.27,0,0,1,10.64-8.6A113,113,0,0,1,474.8,450c-3.55,2.69-7.05,5.38-10.33,8.3s-6.48,5.87-9.47,9-5.81,6.38-8.43,9.75a123,123,0,0,0-7.27,10.46c-1.07,1.82-2.19,3.6-3.16,5.47s-2,3.7-2.83,5.57-1.63,3.73-2.61,5.93a49.76,49.76,0,0,1-3.65,6.67,84.53,84.53,0,0,1-19.94,21,77,77,0,0,1-26.58,13.06,65.41,65.41,0,0,1-7.55,1.48c-1.28.16-2.56.38-3.86.45l-3.9.13c-.66,0-1.31,0-2,0l-2-.12-3.93-.28-3.88-.66a31.49,31.49,0,0,1-3.86-.81A56.83,56.83,0,0,1,335,539.53a68.26,68.26,0,0,1-12.6-9.16,74.53,74.53,0,0,1-10.1-11.62c-.74-1-1.46-2.15-2.14-3.24l-1.94-3.41c-.67-1.12-1.2-2.31-1.76-3.5s-1.15-2.35-1.57-3.6a72.51,72.51,0,0,1-4.59-30.33,99.87,99.87,0,0,1,2.08-14.6c.5-2.35,1.07-4.64,1.62-6.81s1.24-4.57,2-6.87a103.15,103.15,0,0,1,5.45-13.62,83,83,0,0,1,7.71-12.67l2.27-3,2.44-2.84c.8-1,1.7-1.84,2.57-2.72s1.74-1.8,2.7-2.61a67.39,67.39,0,0,1,5.82-4.72c1-.73,2-1.5,3-2.17l3.18-1.95c8.1-4.81,17.28-8.78,27.07-10.4a55.21,55.21,0,0,1,14.92-.46,53.77,53.77,0,0,1,7.36,1.32,48.8,48.8,0,0,1,7,2.48,55.52,55.52,0,0,1,6.5,3.38c1,.66,2,1.39,3,2.08.49.35,1,.68,1.47,1.06l1.36,1.19,1.36,1.19a12.55,12.55,0,0,1,1.29,1.24l2.46,2.58a52.92,52.92,0,0,1,4.24,5.64A57.73,57.73,0,0,1,428.28,436.9Z"
            transform="translate(-10.01 -228.33)" />
        <path class="cls-1"
            d="M174,516.1a57.64,57.64,0,0,1-31.21.5c-1.3-.36-2.61-.72-3.89-1.17l-1.93-.66-1.83-.67a63,63,0,0,1-7.46-3.38A47.15,47.15,0,0,1,114.17,500a44.92,44.92,0,0,1-8.78-15.5,58.4,58.4,0,0,1-2.75-17.13,140.16,140.16,0,0,1,.71-15.9,97.41,97.41,0,0,1,2.84-16.19c.69-2.62,1.46-5.17,2.25-7.65l1.21-3.64.63-1.86.66-1.89c1.82-4.94,3.8-9.77,6.07-14.54a103.78,103.78,0,0,1,17.76-26.83A113.51,113.51,0,0,1,146.32,368,133,133,0,0,1,159,358.81a129.39,129.39,0,0,1,27.67-13.52c-3.86,3.37-7.67,6.67-11.37,10.07s-7.28,6.82-10.74,10.33c-1.7,1.8-3.46,3.5-5.08,5.34-.81.92-1.65,1.8-2.47,2.7l-2.38,2.76c-1.6,1.81-3.06,3.73-4.58,5.57-.76.94-1.43,1.92-2.15,2.87s-1.46,1.88-2.1,2.88c-1.3,2-2.71,3.86-3.84,5.9l-1.83,3-1.61,3.05a126,126,0,0,0-5.82,12.82c-1.74,4.45-3.42,9-4.91,13.53l-.55,1.69-.54,1.72L125.56,433c-.72,2.31-1.38,4.58-2,6.82A96.53,96.53,0,0,0,121,453.29c-.3,2.43-.57,4.92-.82,7.26s-.42,4.67-.52,6.91a49.52,49.52,0,0,0,.93,12.69,32.3,32.3,0,0,0,1.86,5.79,31.21,31.21,0,0,0,2.87,5.45,38.21,38.21,0,0,0,3.89,5,43.81,43.81,0,0,0,4.84,4.44,64.15,64.15,0,0,0,5.69,4l1.56,1,1.51.9c1,.62,2,1.12,3.07,1.7a63,63,0,0,0,6.48,2.91,67.74,67.74,0,0,0,6.89,2.27A84.45,84.45,0,0,0,174,516.1Z"
            transform="translate(-10.01 -228.33)" />
        <path class="cls-1"
            d="M480.32,272.94c.9,16.27.62,32.35.21,48.4-.12,4-.24,8-.41,12s-.33,8-.52,12.06c-.19,3.93-.43,7.92-.58,11.89s-.39,7.95-.54,11.94-.37,8-.53,11.93-.32,7.9-.39,11.78,0,7.72.16,11.57l.17,2.91.19,3c.11,2,.23,4,.37,5.93a80.24,80.24,0,0,0,1.34,11.16,17.6,17.6,0,0,0,1.57,4.53,8,8,0,0,0,2.86,3.11c2.5,1.67,6.26,2.07,10,1.65A54.67,54.67,0,0,0,505.8,434a39.48,39.48,0,0,1-10.69,6.31,23.53,23.53,0,0,1-6.43,1.53,16.71,16.71,0,0,1-7.15-.9,14.86,14.86,0,0,1-6.29-4.52,23.42,23.42,0,0,1-3.58-6.3,46.14,46.14,0,0,1-2-6.3c-.54-2.08-1-4.11-1.35-6.14s-.74-4-1.08-6l-.48-3-.45-3.09a124.57,124.57,0,0,1-1.08-12.48c-.18-4.15-.14-8.25-.11-12.31s.21-8.1.37-12.15.44-8.09.73-12.13.65-8.07,1.12-12.14.86-8,1.39-12,1.06-8,1.65-12c1.21-8,2.58-15.94,4.2-23.86S478,280.76,480.32,272.94Z"
            transform="translate(-10.01 -228.33)" />
        <path class="cls-1"
            d="M441,361.56a49.1,49.1,0,0,1,4.77-8.27,78.31,78.31,0,0,1,5.65-7.13,95.82,95.82,0,0,1,13-12,94.35,94.35,0,0,1,15-9.46,61.92,61.92,0,0,1,17.59-6,61.82,61.82,0,0,1-10.4,15.41,97.69,97.69,0,0,1-28,21.44,78.1,78.1,0,0,1-8.35,3.61A48.77,48.77,0,0,1,441,361.56Z"
            transform="translate(-10.01 -228.33)" />
        <path class="cls-1"
            d="M517,246c.89,8.39,1.29,16.73,1.61,25s.42,16.61.45,24.89c0,4.14,0,8.27,0,12.4s-.11,8.21-.19,12.46l-.56,24.56L518,357.64c-.14,4.09-.18,8.15-.2,12.15s.1,7.94.29,11.9l.19,3,.24,3.08.43,6.12a102.34,102.34,0,0,0,1.34,11.55,20.43,20.43,0,0,0,1.45,4.75,8,8,0,0,0,2.55,3.27c2.27,1.78,6,2.3,9.87,1.85A53.1,53.1,0,0,0,546,412.24a38.12,38.12,0,0,1-10.75,7.09,23.05,23.05,0,0,1-6.73,1.75,16.18,16.18,0,0,1-7.63-1.1,15.82,15.82,0,0,1-6.44-5.07,27.28,27.28,0,0,1-3.58-6.57,56.38,56.38,0,0,1-2.09-6.47c-.57-2.13-1.07-4.22-1.5-6.31L506,389.38l-.56-3.08-.53-3.2c-.69-4.27-1.08-8.6-1.37-12.88s-.32-8.51-.39-12.7,0-8.35.11-12.53.27-8.35.48-12.53.5-8.34.9-12.57c.37-4,.72-8.23,1.19-12.35s.94-8.27,1.48-12.39c1.11-8.26,2.4-16.49,4-24.69S514.67,254.09,517,246Z"
            transform="translate(-10.01 -228.33)" />
        <path class="cls-1"
            d="M566.15,294.23a67.68,67.68,0,0,1,2,6.78c.58,2.25,1.05,4.5,1.49,6.74.86,4.49,1.47,8.95,2,13.42a240.78,240.78,0,0,1,1,26.68,229.67,229.67,0,0,1-1.79,26.65c-.57,4.45-1.33,8.9-2.25,13.36-.49,2.24-1,4.47-1.6,6.71a70.43,70.43,0,0,1-2.11,6.73,64.34,64.34,0,0,1-2.35-6.65c-.69-2.23-1.26-4.45-1.81-6.68q-1.56-6.69-2.48-13.41a182.5,182.5,0,0,1-1.61-26.9c.05-4.48.26-9,.7-13.44s1-9,1.71-13.41,1.64-8.91,2.77-13.34c.58-2.22,1.19-4.43,1.9-6.64A65.67,65.67,0,0,1,566.15,294.23Z"
            transform="translate(-10.01 -228.33)" />
        <path class="cls-1"
            d="M644.26,331.12a62.67,62.67,0,0,0-2.94-7.15,46.93,46.93,0,0,0-3.77-6.52,33.3,33.3,0,0,0-4.7-5.54,20.27,20.27,0,0,0-5.5-3.89,9.72,9.72,0,0,0-5.49-1,8.57,8.57,0,0,0-4.53,2.31,23.13,23.13,0,0,0-4,4.87,53.35,53.35,0,0,0-3.23,6.16c-1,2.18-1.87,4.43-2.7,6.77l-1.27,3.55c-.42,1.19-.81,2.32-1.16,3.47a71.09,71.09,0,0,0-2.88,13.8,43.31,43.31,0,0,0,.52,13.31,30.81,30.81,0,0,0,4.81,11.56,34.29,34.29,0,0,0,4,5,24.45,24.45,0,0,0,4.68,3.71A16.55,16.55,0,0,0,626.72,384c3.76-.33,7.78-2,11.87-4.35,2-1.16,4.1-2.51,6.26-3.92l6.5-4.22c8.69-5.59,17.45-11.08,26.35-16.39s17.88-10.51,27.17-15.3c-7.49,7.26-15.28,14.11-23.15,20.88s-15.88,13.3-24,19.77c-4.1,3.21-7.91,6.45-12.61,9.64a41.12,41.12,0,0,1-16.68,7.05,28.53,28.53,0,0,1-10-.21,30.8,30.8,0,0,1-9.27-3.47,41.44,41.44,0,0,1-13.31-12.72,44.21,44.21,0,0,1-6.84-16.91,54.09,54.09,0,0,1-.1-17.54A74.15,74.15,0,0,1,593.42,330c.5-1.29,1.05-2.56,1.58-3.78s1-2.41,1.63-3.62c1.14-2.44,2.38-4.89,3.77-7.31a53,53,0,0,1,4.79-7.07,29.73,29.73,0,0,1,6.7-6.29,19.13,19.13,0,0,1,4.53-2.24,15.3,15.3,0,0,1,5.22-.77,17,17,0,0,1,9.21,3.21,25.64,25.64,0,0,1,6.14,6.21,35.49,35.49,0,0,1,4,7.25A45.53,45.53,0,0,1,644.26,331.12Z"
            transform="translate(-10.01 -228.33)" />
        <path class="cls-1"
            d="M654.84,366.47,718,325.11,715,321.27l6.3-4.85a46.45,46.45,0,0,1-3.53-4.45c-.79-1.12-1.49-2.21-2.11-3.25a6.61,6.61,0,0,1-.44-3.2c.35-2.75,2.58-4.33,6.34-7.38,2.55-2.08,5-4.33,7.5-6.43,2-1.62,4.87-4,8.42-7.1L732,277.9l10.16-8.55,7.65,9.3,18.7-16.26,4.09,5.25-18.64,16.24L767.16,299l19.33-15.5,3.93,5-18.84,16,7.79,9.25L769.78,322,764,315.65l-12.2,10.1c-.67.55-2,1.64-3.75,3.15-2,1.7-3.58,3.13-4.66,4.11-3.47,2.2-5.48,1.61-6.17,1.33-1-.39-1.44-1-3.21-3.15-.84-1-2.11-2.51-3.72-4.35l-6.44,5.31q-1.47-1.66-2.93-3.35l-59.64,52Z"
            transform="translate(-10.01 -228.33)" />
        <path class="cls-3"
            d="M654.84,366.47,718,325.11,715,321.27l6.3-4.85a46.45,46.45,0,0,1-3.53-4.45c-.79-1.12-1.49-2.21-2.11-3.25a6.61,6.61,0,0,1-.44-3.2c.35-2.75,2.58-4.33,6.34-7.38,2.55-2.08,5-4.33,7.5-6.43,2-1.62,4.87-4,8.42-7.1L732,277.9l10.16-8.55,7.65,9.3,18.7-16.26,4.09,5.25-18.64,16.24L767.16,299l19.33-15.5,3.93,5-18.84,16,7.79,9.25L769.78,322,764,315.65l-12.2,10.1c-.67.55-2,1.64-3.75,3.15-2,1.7-3.58,3.13-4.66,4.11-3.47,2.2-5.48,1.61-6.17,1.33-1-.39-1.44-1-3.21-3.15-.84-1-2.11-2.51-3.72-4.35l-6.44,5.31q-1.47-1.66-2.93-3.35l-59.64,52Z"
            transform="translate(-10.01 -228.33)" />
        <path class="cls-1"
            d="M567.59,262.71A128.31,128.31,0,0,1,640.8,295,124.34,124.34,0,0,0,605,279.85a118.34,118.34,0,0,0-37.64-3.14Z"
            transform="translate(-10.01 -228.33)" />
        <ellipse class="cls-1" cx="557.46" cy="41.38" rx="8.4" ry="10.17" />
        <ellipse class="cls-3" cx="557.46" cy="41.38" rx="8.4" ry="10.17" />
        <path class="cls-1" d="M517.37,251.17a155.6,155.6,0,0,1,39.1,7.64,148.88,148.88,0,0,0-37.61,6.28Z"
            transform="translate(-10.01 -228.33)" />
    </g>
</svg>
