<?xml version="1.0" encoding="utf-8"?>
<!-- Generator: Adobe Illustrator 19.0.0, SVG Export Plug-In . SVG Version: 6.00 Build 0)  -->
<svg version="1.1" id="Layer_1" xmlns="http://www.w3.org/2000/svg" xmlns:xlink="http://www.w3.org/1999/xlink" x="0px" y="0px"
	 viewBox="0 0 288 288" style="enable-background:new 0 0 288 288;" xml:space="preserve">
<style type="text/css">
	.st0{fill:url(#XMLID_13_);}
	.st1{fill:url(#XMLID_14_);}
	.st2{fill:url(#XMLID_15_);}
	.st3{fill:url(#XMLID_16_);}
	.st4{fill:url(#XMLID_17_);}
	.st5{fill:url(#XMLID_18_);}
	.st6{fill:url(#XMLID_19_);}
	.st7{fill:url(#XMLID_20_);}
	.st8{fill:url(#XMLID_21_);}
	.st9{fill:url(#XMLID_22_);}
	.st10{fill:url(#XMLID_23_);}
	.st11{fill:url(#XMLID_24_);}
	.st12{fill:url(#XMLID_25_);}
	.st13{fill:#BABABA;}
	.st14{fill:#565656;}
	.st15{fill:url(#XMLID_26_);}
	.st16{fill:#494949;}
	.st17{fill:none;stroke:url(#XMLID_27_);stroke-width:10;stroke-linecap:round;stroke-miterlimit:10;}
	.st18{fill:#FFFFFF;stroke:#000000;stroke-width:2;stroke-linecap:round;stroke-miterlimit:10;}
</style>
<g id="Layer_1">
	<g id="XMLID_85_">
		<radialGradient id="XMLID_13_" cx="145.45" cy="137.6373" r="117.701" gradientUnits="userSpaceOnUse">
			<stop  offset="0" style="stop-color:#8DC63F"/>
			<stop  offset="0" style="stop-color:#96C84D"/>
			<stop  offset="0" style="stop-color:#ACD07A"/>
			<stop  offset="0" style="stop-color:#D0DFBA"/>
			<stop  offset="0" style="stop-color:#EDEDEE"/>
			<stop  offset="0.1511" style="stop-color:#DEE6D5"/>
			<stop  offset="0.4849" style="stop-color:#C1D89D"/>
			<stop  offset="0.9742" style="stop-color:#90C742"/>
			<stop  offset="1" style="stop-color:#8DC63F"/>
		</radialGradient>
		<ellipse id="XMLID_96_" class="st0" cx="49.282" cy="168.983" rx="38.382" ry="66.455"/>
		<radialGradient id="XMLID_14_" cx="145.45" cy="137.6373" r="117.701" gradientUnits="userSpaceOnUse">
			<stop  offset="0" style="stop-color:#8DC63F"/>
			<stop  offset="0" style="stop-color:#96C84D"/>
			<stop  offset="0" style="stop-color:#ACD07A"/>
			<stop  offset="0" style="stop-color:#D0DFBA"/>
			<stop  offset="0" style="stop-color:#EDEDEE"/>
			<stop  offset="0.1511" style="stop-color:#DEE6D5"/>
			<stop  offset="0.4849" style="stop-color:#C1D89D"/>
			<stop  offset="0.9742" style="stop-color:#90C742"/>
			<stop  offset="1" style="stop-color:#8DC63F"/>
		</radialGradient>
		<path id="XMLID_95_" class="st1" d="M49.282,102.528c62.74-20.92,125.48-41.839,188.22-62.759c2.5-0.219,6.385-0.288,10.673,0.885
			c6.475,1.771,10.896,5.56,15.03,10.622c2.773,3.396,10.278,13.319,14.376,31.689c3.439,15.414,2.398,27.442,1.743,34.344
			c-0.708,7.462-1.981,12.912-2.832,16.11c-1.001,3.763-2.485,9.215-5.881,15.933c-2.017,3.989-3.732,7.381-7.188,11.33
			c-4.31,4.925-9.087,8.155-12.416,10.091c-66.364,21.62-132.728,43.241-199.092,64.861c3.017-0.904,7.352-2.541,11.586-5.564
			c1.293-0.923,5.491-4.056,10.796-12.84c4.188-6.934,6.325-12.851,7.373-16.05c4.67-14.253,4.58-25.954,4.476-32.313
			c-0.073-4.513-0.489-12.938-2.896-23.326c-3.589-15.482-8.953-23.887-10.269-25.894c-5.174-7.886-9.676-11.215-13.429-13.268
			C55.629,104.234,51.879,103.127,49.282,102.528z"/>
		<radialGradient id="XMLID_15_" cx="145.45" cy="137.6373" r="117.701" gradientUnits="userSpaceOnUse">
			<stop  offset="0" style="stop-color:#8DC63F"/>
			<stop  offset="0" style="stop-color:#96C84D"/>
			<stop  offset="0" style="stop-color:#ACD07A"/>
			<stop  offset="0" style="stop-color:#D0DFBA"/>
			<stop  offset="0" style="stop-color:#EDEDEE"/>
			<stop  offset="0.1511" style="stop-color:#DEE6D5"/>
			<stop  offset="0.4849" style="stop-color:#C1D89D"/>
			<stop  offset="0.9742" style="stop-color:#90C742"/>
			<stop  offset="1" style="stop-color:#8DC63F"/>
		</radialGradient>
		<rect id="XMLID_94_" x="41.853" y="140.716" class="st2" width="5.684" height="56.533"/>
		<radialGradient id="XMLID_16_" cx="145.45" cy="137.6373" r="117.701" gradientUnits="userSpaceOnUse">
			<stop  offset="0" style="stop-color:#8DC63F"/>
			<stop  offset="0" style="stop-color:#96C84D"/>
			<stop  offset="0" style="stop-color:#ACD07A"/>
			<stop  offset="0" style="stop-color:#D0DFBA"/>
			<stop  offset="0" style="stop-color:#EDEDEE"/>
			<stop  offset="0.1511" style="stop-color:#DEE6D5"/>
			<stop  offset="0.4849" style="stop-color:#C1D89D"/>
			<stop  offset="0.9742" style="stop-color:#90C742"/>
			<stop  offset="1" style="stop-color:#8DC63F"/>
		</radialGradient>
		<ellipse id="XMLID_93_" class="st3" cx="47.537" cy="168.983" rx="16.326" ry="28.267"/>
		<radialGradient id="XMLID_17_" cx="145.45" cy="137.6373" r="117.701" gradientUnits="userSpaceOnUse">
			<stop  offset="0" style="stop-color:#8DC63F"/>
			<stop  offset="0" style="stop-color:#96C84D"/>
			<stop  offset="0" style="stop-color:#ACD07A"/>
			<stop  offset="0" style="stop-color:#D0DFBA"/>
			<stop  offset="0" style="stop-color:#EDEDEE"/>
			<stop  offset="0.1511" style="stop-color:#DEE6D5"/>
			<stop  offset="0.4849" style="stop-color:#C1D89D"/>
			<stop  offset="0.9742" style="stop-color:#90C742"/>
			<stop  offset="1" style="stop-color:#8DC63F"/>
		</radialGradient>
		<ellipse id="XMLID_92_" class="st4" cx="42.732" cy="168.983" rx="16.326" ry="28.267"/>
		<radialGradient id="XMLID_18_" cx="145.45" cy="137.6373" r="117.701" gradientUnits="userSpaceOnUse">
			<stop  offset="0" style="stop-color:#8DC63F"/>
			<stop  offset="0" style="stop-color:#96C84D"/>
			<stop  offset="0" style="stop-color:#ACD07A"/>
			<stop  offset="0" style="stop-color:#D0DFBA"/>
			<stop  offset="0" style="stop-color:#EDEDEE"/>
			<stop  offset="0.1511" style="stop-color:#DEE6D5"/>
			<stop  offset="0.4849" style="stop-color:#C1D89D"/>
			<stop  offset="0.9742" style="stop-color:#90C742"/>
			<stop  offset="1" style="stop-color:#8DC63F"/>
		</radialGradient>
		<ellipse id="XMLID_91_" class="st5" cx="90.415" cy="107.814" rx="5.248" ry="5.286"/>
		<radialGradient id="XMLID_19_" cx="145.45" cy="137.6373" r="117.701" gradientUnits="userSpaceOnUse">
			<stop  offset="0" style="stop-color:#8DC63F"/>
			<stop  offset="0" style="stop-color:#96C84D"/>
			<stop  offset="0" style="stop-color:#ACD07A"/>
			<stop  offset="0" style="stop-color:#D0DFBA"/>
			<stop  offset="0" style="stop-color:#EDEDEE"/>
			<stop  offset="0.1511" style="stop-color:#DEE6D5"/>
			<stop  offset="0.4849" style="stop-color:#C1D89D"/>
			<stop  offset="0.9742" style="stop-color:#90C742"/>
			<stop  offset="1" style="stop-color:#8DC63F"/>
		</radialGradient>
		<path id="XMLID_90_" class="st6" d="M154.9,134.661l39.061,7.947l-2.993-22.301c9.008-0.843,18.016-1.687,27.025-2.53
			c-12.588-2.445-25.177-4.89-37.765-7.336c1.004,6.724,2.008,13.447,3.012,20.171L154.9,134.661z"/>
		<radialGradient id="XMLID_20_" cx="145.45" cy="137.6373" r="117.701" gradientUnits="userSpaceOnUse">
			<stop  offset="0" style="stop-color:#8DC63F"/>
			<stop  offset="0" style="stop-color:#96C84D"/>
			<stop  offset="0" style="stop-color:#ACD07A"/>
			<stop  offset="0" style="stop-color:#D0DFBA"/>
			<stop  offset="0" style="stop-color:#EDEDEE"/>
			<stop  offset="0.1511" style="stop-color:#DEE6D5"/>
			<stop  offset="0.4849" style="stop-color:#C1D89D"/>
			<stop  offset="0.9742" style="stop-color:#90C742"/>
			<stop  offset="1" style="stop-color:#8DC63F"/>
		</radialGradient>
		<path id="XMLID_89_" class="st7" d="M97.737,126.525c2.936,8.105,6.04,19.357,6.96,33.021c1.204,17.868-1.817,32.527-4.596,42.051
			"/>
		<radialGradient id="XMLID_21_" cx="145.45" cy="137.6373" r="117.701" gradientUnits="userSpaceOnUse">
			<stop  offset="0" style="stop-color:#8DC63F"/>
			<stop  offset="0" style="stop-color:#96C84D"/>
			<stop  offset="0" style="stop-color:#ACD07A"/>
			<stop  offset="0" style="stop-color:#D0DFBA"/>
			<stop  offset="0" style="stop-color:#EDEDEE"/>
			<stop  offset="0.1511" style="stop-color:#DEE6D5"/>
			<stop  offset="0.4849" style="stop-color:#C1D89D"/>
			<stop  offset="0.9742" style="stop-color:#90C742"/>
			<stop  offset="1" style="stop-color:#8DC63F"/>
		</radialGradient>
		<line id="XMLID_88_" class="st8" x1="121.185" y1="194.255" x2="130.899" y2="191.398"/>
		<radialGradient id="XMLID_22_" cx="145.45" cy="137.6373" r="117.701" gradientUnits="userSpaceOnUse">
			<stop  offset="0" style="stop-color:#8DC63F"/>
			<stop  offset="0" style="stop-color:#96C84D"/>
			<stop  offset="0" style="stop-color:#ACD07A"/>
			<stop  offset="0" style="stop-color:#D0DFBA"/>
			<stop  offset="0" style="stop-color:#EDEDEE"/>
			<stop  offset="0.1511" style="stop-color:#DEE6D5"/>
			<stop  offset="0.4849" style="stop-color:#C1D89D"/>
			<stop  offset="0.9742" style="stop-color:#90C742"/>
			<stop  offset="1" style="stop-color:#8DC63F"/>
		</radialGradient>
		<line id="XMLID_87_" class="st9" x1="126.172" y1="187.765" x2="125.911" y2="197.887"/>
		<radialGradient id="XMLID_23_" cx="145.45" cy="137.6373" r="117.701" gradientUnits="userSpaceOnUse">
			<stop  offset="0" style="stop-color:#8DC63F"/>
			<stop  offset="0" style="stop-color:#96C84D"/>
			<stop  offset="0" style="stop-color:#ACD07A"/>
			<stop  offset="0" style="stop-color:#D0DFBA"/>
			<stop  offset="0" style="stop-color:#EDEDEE"/>
			<stop  offset="0.1511" style="stop-color:#DEE6D5"/>
			<stop  offset="0.4849" style="stop-color:#C1D89D"/>
			<stop  offset="0.9742" style="stop-color:#90C742"/>
			<stop  offset="1" style="stop-color:#8DC63F"/>
		</radialGradient>
		<line id="XMLID_86_" class="st10" x1="236.724" y1="159.632" x2="246.438" y2="156.775"/>
	</g>
	<g id="XMLID_73_">
		
			<radialGradient id="XMLID_24_" cx="81.1075" cy="168.9803" r="51.9113" gradientTransform="matrix(1.2304 0 0 1 -50.515 0.0078)" gradientUnits="userSpaceOnUse">
			<stop  offset="0" style="stop-color:#8DC63F"/>
			<stop  offset="0" style="stop-color:#96C84D"/>
			<stop  offset="0" style="stop-color:#ACD07A"/>
			<stop  offset="0" style="stop-color:#D0DFBA"/>
			<stop  offset="0" style="stop-color:#EDEDEE"/>
			<stop  offset="0.1511" style="stop-color:#DEE6D5"/>
			<stop  offset="0.4849" style="stop-color:#C1D89D"/>
			<stop  offset="0.9742" style="stop-color:#90C742"/>
			<stop  offset="1" style="stop-color:#8DC63F"/>
		</radialGradient>
		<ellipse id="XMLID_84_" class="st11" cx="49.282" cy="168.983" rx="38.382" ry="66.455"/>
		<linearGradient id="XMLID_25_" gradientUnits="userSpaceOnUse" x1="166.6076" y1="163.2187" x2="131.5545" y2="66.9112">
			<stop  offset="0" style="stop-color:#8DC63F"/>
			<stop  offset="0.0541" style="stop-color:#96C84D"/>
			<stop  offset="0.1684" style="stop-color:#ACD07A"/>
			<stop  offset="0.3318" style="stop-color:#D0DFBA"/>
			<stop  offset="0.4495" style="stop-color:#EDEDEE"/>
			<stop  offset="0.5327" style="stop-color:#DEE6D5"/>
			<stop  offset="0.7164" style="stop-color:#C1D89D"/>
			<stop  offset="0.9858" style="stop-color:#90C742"/>
			<stop  offset="1" style="stop-color:#8DC63F"/>
		</linearGradient>
		<path id="XMLID_83_" class="st12" d="M49.282,102.528c62.74-20.92,125.48-41.839,188.22-62.759
			c2.5-0.219,6.385-0.288,10.673,0.885c6.475,1.771,10.896,5.56,15.03,10.622c2.773,3.396,10.278,13.319,14.376,31.689
			c3.439,15.414,2.398,27.442,1.743,34.344c-0.708,7.462-1.981,12.912-2.832,16.11c-1.001,3.763-2.485,9.215-5.881,15.933
			c-2.017,3.989-3.732,7.381-7.188,11.33c-4.31,4.925-9.087,8.155-12.416,10.091c-66.364,21.62-132.728,43.241-199.092,64.861
			c3.017-0.904,7.352-2.541,11.586-5.564c1.293-0.923,5.491-4.056,10.796-12.84c4.188-6.934,6.325-12.851,7.373-16.05
			c4.67-14.253,4.58-25.954,4.476-32.313c-0.073-4.513-0.489-12.938-2.896-23.326c-3.589-15.482-8.953-23.887-10.269-25.894
			c-5.174-7.886-9.676-11.215-13.429-13.268C55.629,104.234,51.879,103.127,49.282,102.528z"/>
		<rect id="XMLID_82_" x="41.853" y="140.716" class="st13" width="5.684" height="56.533"/>
		<ellipse id="XMLID_81_" class="st14" cx="47.537" cy="168.983" rx="16.326" ry="28.267"/>
		<radialGradient id="XMLID_26_" cx="42.7322" cy="168.983" r="23.0818" gradientUnits="userSpaceOnUse">
			<stop  offset="0" style="stop-color:#8DC63F"/>
			<stop  offset="0" style="stop-color:#92C44B"/>
			<stop  offset="0" style="stop-color:#A1C372"/>
			<stop  offset="0" style="stop-color:#B3C1A2"/>
			<stop  offset="0" style="stop-color:#BCBEC0"/>
			<stop  offset="0.4552" style="stop-color:#A2A4A6"/>
			<stop  offset="1" style="stop-color:#808285"/>
		</radialGradient>
		<ellipse id="XMLID_80_" class="st15" cx="42.732" cy="168.983" rx="16.326" ry="28.267"/>
		<ellipse id="XMLID_79_" cx="90.415" cy="107.814" rx="5.248" ry="5.286"/>
		<path id="XMLID_78_" class="st16" d="M154.9,134.661l39.061,7.947l-2.993-22.301c9.008-0.843,18.016-1.687,27.025-2.53
			c-12.588-2.445-25.177-4.89-37.765-7.336c1.004,6.724,2.008,13.447,3.012,20.171L154.9,134.661z"/>
		<linearGradient id="XMLID_27_" gradientUnits="userSpaceOnUse" x1="85.0069" y1="125.8373" x2="112.8314" y2="202.2844">
			<stop  offset="0" style="stop-color:#000000"/>
			<stop  offset="0.0024" style="stop-color:#0C0C0C"/>
			<stop  offset="0.0777" style="stop-color:#76787A"/>
			<stop  offset="0.1392" style="stop-color:#A5A7AA"/>
			<stop  offset="0.1839" style="stop-color:#C5C7C9"/>
			<stop  offset="0.2073" style="stop-color:#D1D3D4"/>
			<stop  offset="1" style="stop-color:#000000"/>
		</linearGradient>
		<path id="XMLID_77_" class="st17" d="M97.737,126.525c2.936,8.105,6.04,19.357,6.96,33.021
			c1.204,17.868-1.817,32.527-4.596,42.051"/>
		<line id="XMLID_76_" class="st18" x1="121.185" y1="194.255" x2="130.899" y2="191.398"/>
		<line id="XMLID_75_" class="st18" x1="126.172" y1="187.765" x2="125.911" y2="197.887"/>
		<line id="XMLID_74_" class="st18" x1="236.724" y1="159.632" x2="246.438" y2="156.775"/>
	</g>
</g>
</svg>
