<?xml version="1.0" encoding="utf-8"?>
<!-- Generator: Adobe Illustrator 19.0.0, SVG Export Plug-In . SVG Version: 6.00 Build 0)  -->
<svg version="1.1" id="Layer_1" xmlns="http://www.w3.org/2000/svg" xmlns:xlink="http://www.w3.org/1999/xlink" x="0px" y="0px"
	 viewBox="0 0 288 288" style="enable-background:new 0 0 288 288;" xml:space="preserve">
<style type="text/css">
	.st0{fill:#FEE100;}
	.st1{fill:#FED402;}
	.st2{fill:#AEADAE;}
	.st3{fill:none;stroke:#C1B456;stroke-width:2;stroke-miterlimit:10;}
	.st4{fill:url(#XMLID_21_);}
</style>
<path id="XMLID_1_" class="st0" d="M7.891,115.696c42.781-16.335,85.561-32.671,128.342-49.006c1.828-0.72,4.762-1.618,8.457-1.664
	c3.16-0.039,5.744,0.559,7.487,1.109c42.566,16.52,85.131,33.04,127.697,49.56L143.882,178.98L7.891,115.696z"/>
<path id="XMLID_2_" class="st1" d="M7.891,115.709v15.577c45.442,21.981,90.885,43.962,136.327,65.942c0-6.116,0-12.231,0-18.346
	C98.776,157.825,53.334,136.767,7.891,115.709z"/>
<path id="XMLID_3_" class="st1" d="M144.219,178.73c45.208-21.002,90.417-42.005,135.625-63.007
	c-0.052,5.308-0.104,10.616-0.156,15.924c-45.177,21.905-90.354,43.809-135.531,65.714
	C144.178,191.151,144.198,184.94,144.219,178.73z"/>
<path id="XMLID_7_" class="st1" d="M6.216,125.409v7.213c46.196,21.912,92.392,43.824,138.589,65.737
	c45.594-22.349,91.188-44.698,136.782-67.047c0.033-2.712,0.065-5.424,0.098-8.136c-45.731,22.497-91.462,44.994-137.193,67.491
	L6.216,125.409z"/>
<path id="XMLID_6_" class="st0" d="M7.891,124.416l-1.675,0.994c46.108,21.503,92.217,43.006,138.325,64.509
	c45.747-22.215,91.495-44.43,137.242-66.645c-0.67-0.256-1.339-0.511-2.009-0.767c-45.154,21.754-90.309,43.507-135.463,65.261
	C98.838,166.65,53.364,145.533,7.891,124.416z"/>
<path id="XMLID_8_" class="st2" d="M12.951,126.759c4.002,1.885,8.004,3.769,12.006,5.654c-0.657,0.179-1.599,0.539-2.45,1.315
	c-1.404,1.281-2.001,2.975-2.061,4.97c-0.098,3.304-0.197,6.607-0.295,9.911c-1.032,0.436-2.064,0.872-3.097,1.307
	c-0.168,7.374-0.336,14.749-0.504,22.123c-0.161,1.705-1.379,2.935-2.545,2.994c-1.429,0.073-3.103-1.594-2.812-3.838
	c0.05-7.506,0.1-15.012,0.151-22.518c-0.895-0.688-1.789-1.376-2.684-2.064c0.034-4.021,0.068-8.043,0.102-12.064
	c-0.033-0.351-0.44-5.323,2.631-7.2C11.781,127.112,12.292,126.884,12.951,126.759z"/>
<path id="XMLID_5_" class="st2" d="M33.743,136.628c4.002,1.885,8.004,3.769,12.006,5.654c-0.657,0.179-1.599,0.539-2.45,1.315
	c-1.404,1.281-2.001,2.975-2.061,4.97c-0.098,3.304-0.197,6.607-0.295,9.911c-1.032,0.436-2.064,0.872-3.097,1.307
	c-0.168,7.374-0.336,14.749-0.504,22.123c-0.161,1.705-1.379,2.935-2.545,2.994c-1.429,0.073-3.103-1.594-2.812-3.838
	c0.05-7.506,0.1-15.012,0.151-22.518c-0.895-0.688-1.789-1.376-2.684-2.064c0.034-4.021,0.068-8.043,0.102-12.064
	c-0.033-0.351-0.44-5.323,2.631-7.2C32.572,136.982,33.084,136.753,33.743,136.628z"/>
<path id="XMLID_11_" class="st2" d="M56.332,147.017c4.002,1.885,8.004,3.769,12.006,5.654c-0.657,0.179-1.599,0.539-2.45,1.315
	c-1.404,1.281-2.001,2.975-2.061,4.97c-0.098,3.304-0.197,6.607-0.295,9.911c-1.032,0.436-2.064,0.872-3.097,1.307
	c-0.168,7.374-0.336,14.749-0.504,22.123c-0.161,1.705-1.379,2.935-2.545,2.994c-1.429,0.073-3.103-1.594-2.812-3.838
	c0.05-7.506,0.1-15.012,0.151-22.518c-0.895-0.688-1.789-1.376-2.684-2.064c0.034-4.021,0.068-8.043,0.102-12.064
	c-0.033-0.351-0.44-5.323,2.631-7.2C55.162,147.37,55.673,147.141,56.332,147.017z"/>
<path id="XMLID_9_" class="st2" d="M79.159,157.54c4.002,1.885,8.004,3.769,12.006,5.654c-0.657,0.179-1.599,0.539-2.45,1.315
	c-1.404,1.281-2.001,2.975-2.061,4.97c-0.098,3.304-0.197,6.607-0.295,9.911c-1.032,0.436-2.064,0.872-3.097,1.307
	c-0.168,7.374-0.336,14.749-0.504,22.123c-0.161,1.705-1.379,2.935-2.545,2.994c-1.429,0.073-3.103-1.594-2.812-3.838
	c0.05-7.506,0.1-15.012,0.151-22.518c-0.895-0.688-1.789-1.376-2.684-2.064c0.034-4.021,0.068-8.043,0.102-12.064
	c-0.033-0.351-0.44-5.323,2.631-7.2C77.988,157.893,78.499,157.665,79.159,157.54z"/>
<path id="XMLID_10_" class="st2" d="M102.899,168.567c4.002,1.885,8.004,3.769,12.006,5.654c-0.657,0.179-1.599,0.539-2.45,1.315
	c-1.404,1.281-2.001,2.975-2.061,4.97c-0.098,3.304-0.197,6.607-0.295,9.911c-1.032,0.436-2.064,0.872-3.097,1.307
	c-0.168,7.374-0.336,14.749-0.504,22.123c-0.161,1.705-1.379,2.935-2.545,2.994c-1.429,0.073-3.103-1.594-2.812-3.838
	c0.05-7.506,0.1-15.012,0.151-22.518c-0.895-0.688-1.789-1.376-2.684-2.064c0.034-4.021,0.068-8.043,0.102-12.064
	c-0.033-0.351-0.44-5.323,2.631-7.2C101.729,168.921,102.24,168.692,102.899,168.567z"/>
<path id="XMLID_12_" class="st2" d="M125.475,178.98c4.002,1.885,8.004,3.769,12.006,5.654c-0.657,0.179-1.599,0.539-2.45,1.315
	c-1.404,1.281-2.001,2.975-2.061,4.97c-0.098,3.304-0.197,6.607-0.295,9.911c-1.032,0.436-2.064,0.872-3.097,1.307
	c-0.168,7.374-0.336,14.749-0.504,22.123c-0.161,1.705-1.379,2.935-2.545,2.994c-1.429,0.073-3.103-1.594-2.812-3.838
	c0.05-7.506,0.1-15.012,0.151-22.518c-0.895-0.688-1.789-1.376-2.684-2.064c0.034-4.021,0.068-8.043,0.102-12.064
	c-0.033-0.351-0.44-5.323,2.631-7.2C124.305,179.333,124.816,179.104,125.475,178.98z"/>
<path id="XMLID_18_" class="st2" d="M274.532,125.064c-3.815,1.885-7.63,3.769-11.445,5.654c0.626,0.179,1.525,0.539,2.336,1.315
	c1.338,1.281,1.908,2.975,1.965,4.97c0.094,3.304,0.188,6.607,0.281,9.911c0.984,0.436,1.968,0.872,2.952,1.307
	c0.16,7.374,0.321,14.749,0.481,22.123c0.154,1.705,1.315,2.935,2.426,2.994c1.362,0.073,2.958-1.594,2.681-3.838
	c-0.048-7.506-0.096-15.012-0.144-22.518c0.853-0.688,1.706-1.376,2.558-2.064c-0.032-4.021-0.065-8.043-0.097-12.064
	c0.032-0.351,0.419-5.323-2.508-7.2C275.647,125.417,275.16,125.189,274.532,125.064z"/>
<path id="XMLID_17_" class="st2" d="M254.711,134.673c-3.815,1.885-7.63,3.769-11.445,5.654c0.626,0.179,1.525,0.539,2.336,1.315
	c1.338,1.281,1.908,2.975,1.965,4.97c0.094,3.304,0.188,6.607,0.281,9.911c0.984,0.436,1.968,0.872,2.952,1.307
	c0.16,7.374,0.321,14.749,0.481,22.123c0.154,1.705,1.315,2.935,2.426,2.994c1.362,0.073,2.958-1.594,2.681-3.838
	c-0.048-7.506-0.096-15.012-0.144-22.518c0.853-0.688,1.706-1.376,2.558-2.064c-0.032-4.021-0.065-8.043-0.097-12.064
	c0.032-0.351,0.419-5.323-2.508-7.2C255.827,135.026,255.34,134.798,254.711,134.673z"/>
<path id="XMLID_16_" class="st2" d="M233.177,144.792c-3.815,1.885-7.63,3.769-11.445,5.654c0.626,0.179,1.525,0.539,2.336,1.315
	c1.338,1.281,1.908,2.975,1.965,4.97c0.094,3.304,0.188,6.607,0.281,9.911c0.984,0.436,1.968,0.872,2.952,1.307
	c0.16,7.374,0.321,14.749,0.481,22.123c0.154,1.705,1.315,2.935,2.426,2.994c1.362,0.073,2.958-1.594,2.681-3.838
	c-0.048-7.506-0.096-15.012-0.144-22.518c0.853-0.688,1.706-1.376,2.558-2.064c-0.032-4.021-0.065-8.043-0.097-12.064
	c0.032-0.351,0.419-5.323-2.508-7.2C234.292,145.145,233.805,144.917,233.177,144.792z"/>
<path id="XMLID_15_" class="st2" d="M210.098,156.213c-3.815,1.885-7.63,3.769-11.445,5.654c0.626,0.179,1.525,0.539,2.336,1.315
	c1.338,1.281,1.908,2.975,1.965,4.97c0.094,3.304,0.188,6.607,0.281,9.911c0.984,0.436,1.968,0.872,2.952,1.307
	c0.16,7.374,0.321,14.749,0.481,22.123c0.154,1.705,1.315,2.935,2.426,2.994c1.362,0.073,2.958-1.594,2.681-3.838
	c-0.048-7.506-0.096-15.012-0.144-22.518c0.853-0.688,1.706-1.376,2.558-2.064c-0.032-4.021-0.065-8.043-0.097-12.064
	c0.032-0.351,0.419-5.323-2.508-7.2C211.214,156.566,210.727,156.337,210.098,156.213z"/>
<path id="XMLID_14_" class="st2" d="M188.188,166.692c-3.815,1.885-7.63,3.769-11.445,5.654c0.626,0.179,1.525,0.539,2.336,1.315
	c1.338,1.281,1.908,2.975,1.965,4.97c0.094,3.304,0.188,6.607,0.281,9.911c0.984,0.436,1.968,0.872,2.952,1.307
	c0.16,7.374,0.321,14.749,0.481,22.123c0.154,1.705,1.315,2.935,2.426,2.994c1.362,0.073,2.958-1.594,2.681-3.838
	c-0.048-7.506-0.096-15.012-0.144-22.518c0.853-0.688,1.706-1.376,2.558-2.064c-0.032-4.021-0.065-8.043-0.097-12.064
	c0.032-0.351,0.419-5.323-2.508-7.2C189.304,167.046,188.816,166.817,188.188,166.692z"/>
<path id="XMLID_13_" class="st2" d="M164.126,178.327c-3.815,1.885-7.63,3.769-11.445,5.654c0.626,0.179,1.525,0.539,2.336,1.315
	c1.338,1.281,1.908,2.975,1.965,4.97c0.094,3.304,0.188,6.607,0.281,9.911c0.984,0.436,1.968,0.872,2.952,1.307
	c0.16,7.374,0.321,14.749,0.481,22.123c0.154,1.705,1.315,2.935,2.426,2.994c1.362,0.073,2.958-1.594,2.681-3.838
	c-0.048-7.506-0.096-15.012-0.144-22.518c0.853-0.688,1.706-1.376,2.558-2.064c-0.032-4.021-0.065-8.043-0.097-12.064
	c0.032-0.351,0.419-5.323-2.508-7.2C165.242,178.681,164.755,178.452,164.126,178.327z"/>
<ellipse id="XMLID_4_" transform="matrix(0.9439 0.3303 -0.3303 0.9439 41.3121 -10.5299)" class="st3" cx="51.646" cy="116.319" rx="10.825" ry="7.74"/>
<linearGradient id="XMLID_21_" gradientUnits="userSpaceOnUse" x1="12.913" y1="121.0935" x2="278.7856" y2="121.0935">
	<stop  offset="0" style="stop-color:#FFFFFF;stop-opacity:0"/>
	<stop  offset="0.9733" style="stop-color:#FFFFFF;stop-opacity:0.9733"/>
	<stop  offset="1" style="stop-color:#FFFFFF"/>
</linearGradient>
<path id="XMLID_19_" class="st4" d="M144.999,63.445c44.596,17.25,89.191,34.501,133.787,51.751
	c-44.556,21.182-89.111,42.364-133.667,63.547c-44.069-21.182-88.137-42.364-132.206-63.547
	C55.6,98.471,98.287,81.746,140.975,65.021C142.316,64.496,143.657,63.97,144.999,63.445z"/>
</svg>
