<?xml version="1.0" encoding="utf-8"?>
<!-- Generator: Adobe Illustrator 19.0.0, SVG Export Plug-In . SVG Version: 6.00 Build 0)  -->
<svg version="1.1" xmlns="http://www.w3.org/2000/svg" xmlns:xlink="http://www.w3.org/1999/xlink" x="0px" y="0px"
	 viewBox="0 0 288 288" style="enable-background:new 0 0 288 288;" xml:space="preserve">
<style type="text/css">
	.st0{fill:#79CFE1;}
	.st1{fill:#28BEC5;}
	.st2{fill:#FEE000;}
	.st3{fill:none;stroke:#FAB915;stroke-width:3;stroke-miterlimit:10;}
	.st4{fill:url(#XMLID_113_);}
	.st5{fill:url(#XMLID_114_);}
	.st6{fill:#020202;}
	.st7{fill:url(#XMLID_115_);}
	.st8{fill:#7F7F7F;}
	.st9{fill:url(#XMLID_116_);}
	.st10{fill:url(#XMLID_117_);}
	.st11{fill:url(#XMLID_118_);}
	.st12{fill:#ABABAB;}
	.st13{fill:#050606;}
	.st14{fill:url(#XMLID_119_);}
	.st15{fill:none;stroke:#D1D2D1;stroke-miterlimit:10;}
	.st16{fill:none;stroke:#383838;stroke-linecap:round;stroke-linejoin:round;stroke-miterlimit:10;}
	.st17{fill:url(#XMLID_120_);}
	.st18{fill:url(#XMLID_121_);}
	.st19{fill:#BFBFBF;}
	.st20{fill:#828282;}
	.st21{fill:#E2E2E2;}
	.st22{fill:#171617;}
	.st23{fill:url(#XMLID_122_);}
	.st24{fill:#3D3D3D;}
	.st25{fill:url(#XMLID_123_);}
	.st26{fill:url(#XMLID_124_);}
</style>
<g id="base">
	<path id="XMLID_1_" class="st0" d="M25.308,96.526L125.695,57.81l151.582,96.237c-31.954,15.808-63.909,31.616-95.863,47.424
		C129.379,166.489,77.343,131.508,25.308,96.526z"/>
	<path id="XMLID_2_" class="st1" d="M25.301,96.345c0.147,2.728,0.295,5.455,0.442,8.183
		c52.033,35.11,104.065,70.22,156.098,105.329c-0.145-2.856-0.289-5.712-0.434-8.568L25.301,96.345z"/>
	<path id="XMLID_3_" class="st1" d="M277.277,153.866l-95.863,47.424c0.15,2.874,0.299,5.748,0.449,8.621
		c31.941-15.774,63.883-31.549,95.824-47.323C277.55,159.68,277.413,156.773,277.277,153.866z"/>
	<ellipse id="XMLID_4_" class="st2" cx="137.224" cy="74.46" rx="4.001" ry="2.032"/>
	<ellipse id="XMLID_6_" class="st2" cx="145.226" cy="79.355" rx="4.001" ry="2.032"/>
	<ellipse id="XMLID_7_" class="st2" cx="127.233" cy="78.524" rx="4.001" ry="2.032"/>
	<ellipse id="XMLID_8_" class="st2" cx="135.235" cy="83.419" rx="4.001" ry="2.032"/>
	<ellipse id="XMLID_11_" class="st2" cx="153.428" cy="85.451" rx="4.001" ry="2.032"/>
	<ellipse id="XMLID_10_" class="st2" cx="161.43" cy="90.346" rx="4.001" ry="2.032"/>
	<ellipse id="XMLID_9_" class="st2" cx="143.438" cy="89.516" rx="4.001" ry="2.032"/>
	<ellipse id="XMLID_5_" class="st2" cx="151.44" cy="94.411" rx="4.001" ry="2.032"/>
	<ellipse id="XMLID_15_" class="st2" cx="169.22" cy="95.395" rx="4.001" ry="2.032"/>
	<ellipse id="XMLID_14_" class="st2" cx="177.222" cy="100.29" rx="4.001" ry="2.032"/>
	<ellipse id="XMLID_13_" class="st2" cx="159.23" cy="99.46" rx="4.001" ry="2.032"/>
	<ellipse id="XMLID_12_" class="st2" cx="167.232" cy="104.355" rx="4.001" ry="2.032"/>
	<ellipse id="XMLID_19_" class="st2" cx="186.227" cy="104.939" rx="4.001" ry="2.032"/>
	<ellipse id="XMLID_18_" class="st2" cx="194.229" cy="109.834" rx="4.001" ry="2.032"/>
	<ellipse id="XMLID_17_" class="st2" cx="176.236" cy="109.004" rx="4.001" ry="2.032"/>
	<ellipse id="XMLID_16_" class="st2" cx="184.238" cy="113.899" rx="4.001" ry="2.032"/>
	<ellipse id="XMLID_35_" class="st2" cx="202.231" cy="115.524" rx="4.001" ry="2.032"/>
	<ellipse id="XMLID_34_" class="st2" cx="210.233" cy="120.419" rx="4.001" ry="2.032"/>
	<ellipse id="XMLID_33_" class="st2" cx="192.24" cy="119.588" rx="4.001" ry="2.032"/>
	<ellipse id="XMLID_32_" class="st2" cx="200.242" cy="124.484" rx="4.001" ry="2.032"/>
	<ellipse id="XMLID_20_" class="st3" cx="121.578" cy="68.456" rx="6.553" ry="3.328"/>
	<ellipse id="XMLID_21_" class="st3" cx="217.234" cy="130.459" rx="6.553" ry="3.328"/>
	<g id="XMLID_22_">
		
			<radialGradient id="XMLID_113_" cx="118.5116" cy="93.7325" r="18.268" gradientTransform="matrix(0.7735 -0.0176 -0.0176 0.7704 22.4122 24.3383)" gradientUnits="userSpaceOnUse">
			<stop  offset="0" style="stop-color:#A7A9AC"/>
			<stop  offset="1" style="stop-color:#6D6E71"/>
		</radialGradient>
		<path id="XMLID_99_" class="st4" d="M104.579,102.272l-8.176-5.669c-2.686-1.876-2.064-4.661,1.44-6.136l11.227-4.45
			c3.638-1.355,8.844-0.901,11.51,0.958l8.116,5.615c2.533,1.739,1.597,4.242-2.022,5.614l-11.167,4.504
			C112.023,104.201,107.132,104.028,104.579,102.272z"/>
	</g>
	<linearGradient id="XMLID_114_" gradientUnits="userSpaceOnUse" x1="123.1587" y1="118.6362" x2="175.6877" y2="118.6362">
		<stop  offset="0" style="stop-color:#58595B"/>
		<stop  offset="1" style="stop-color:#000000"/>
	</linearGradient>
	<path id="XMLID_59_" class="st5" d="M123.159,111.733l20.928-8.071l31.601,20.063c-6.662,3.296-13.323,6.591-19.985,9.887
		C144.855,126.318,134.007,119.026,123.159,111.733z"/>
	<path id="XMLID_60_" class="st6" d="M122.766,111.547c0.031,0.576,0.062,1.152,0.093,1.728c10.987,7.413,21.973,14.827,32.96,22.24
		c-0.031-0.603-0.061-1.206-0.092-1.809L122.766,111.547z"/>
	<path id="XMLID_61_" d="M175.603,123.816l-19.873,9.831c0.031,0.596,0.062,1.191,0.093,1.787c6.622-3.27,13.243-6.54,19.865-9.81
		C175.659,125.021,175.631,124.418,175.603,123.816z"/>
	<linearGradient id="XMLID_115_" gradientUnits="userSpaceOnUse" x1="65.9316" y1="79.634" x2="103.5711" y2="79.634">
		<stop  offset="0" style="stop-color:#D1D3D4"/>
		<stop  offset="1" style="stop-color:#939598"/>
	</linearGradient>
	<polygon id="XMLID_62_" class="st7" points="65.932,85.451 101.081,71.785 103.571,73.395 68.811,87.484 	"/>
	<polygon id="XMLID_63_" class="st8" points="65.932,85.451 65.932,89.382 68.884,91.392 103.571,76.492 103.571,73.395 
		68.811,87.484 	"/>
	<ellipse id="XMLID_64_" class="st3" cx="45.646" cy="98.258" rx="6.553" ry="3.328"/>
	<ellipse id="XMLID_65_" class="st3" cx="147.439" cy="165.589" rx="6.553" ry="3.328"/>
	<linearGradient id="XMLID_116_" gradientUnits="userSpaceOnUse" x1="173.1581" y1="133.082" x2="191.2938" y2="133.082">
		<stop  offset="0" style="stop-color:#58595B"/>
		<stop  offset="1" style="stop-color:#000000"/>
	</linearGradient>
	<path id="XMLID_106_" class="st9" d="M173.158,132.69c3.374-1.559,6.748-3.119,10.122-4.678c2.671,1.713,5.343,3.426,8.014,5.139
		c-3.37,1.667-6.739,3.334-10.109,5.001C178.509,136.331,175.834,134.511,173.158,132.69z"/>
	<path id="XMLID_105_" class="st6" d="M173.174,132.683c0.008,0.337,0.015,0.675,0.023,1.012c2.682,1.807,5.365,3.613,8.047,5.42
		c-0.015-0.305-0.031-0.61-0.046-0.915C178.523,136.361,175.849,134.522,173.174,132.683z"/>
	<path id="XMLID_104_" d="M191.251,133.197l-10.052,4.973c0.016,0.301,0.031,0.603,0.047,0.904
		c3.349-1.654,6.699-3.308,10.048-4.962C191.28,133.807,191.265,133.502,191.251,133.197z"/>
	<linearGradient id="XMLID_117_" gradientUnits="userSpaceOnUse" x1="151.0705" y1="143.6522" x2="175.3906" y2="143.6522">
		<stop  offset="0" style="stop-color:#58595B"/>
		<stop  offset="1" style="stop-color:#000000"/>
	</linearGradient>
	<path id="XMLID_109_" class="st10" d="M151.07,143.127c4.524-2.091,9.049-4.182,13.573-6.273c3.582,2.297,7.165,4.595,10.747,6.892
		c-4.519,2.235-9.037,4.471-13.556,6.706C158.247,148.01,154.659,145.568,151.07,143.127z"/>
	<path id="XMLID_108_" class="st6" d="M151.092,143.117c0.01,0.452,0.021,0.905,0.031,1.357c3.597,2.423,7.194,4.846,10.791,7.268
		c-0.021-0.409-0.041-0.818-0.062-1.227C158.265,148.05,154.679,145.583,151.092,143.117z"/>
	<path id="XMLID_107_" d="M175.333,143.807l-13.48,6.668c0.021,0.404,0.042,0.808,0.063,1.212c4.491-2.218,8.983-4.436,13.474-6.654
		C175.371,144.625,175.352,144.216,175.333,143.807z"/>
	<linearGradient id="XMLID_118_" gradientUnits="userSpaceOnUse" x1="113.431" y1="141.3817" x2="151.0705" y2="141.3817">
		<stop  offset="0" style="stop-color:#D1D3D4"/>
		<stop  offset="1" style="stop-color:#939598"/>
	</linearGradient>
	<polygon id="XMLID_111_" class="st11" points="113.431,147.199 148.581,133.532 151.07,135.142 116.31,149.231 	"/>
	<polygon id="XMLID_110_" class="st8" points="113.431,147.199 113.431,151.129 116.383,153.14 151.07,138.239 151.07,135.142 
		116.31,149.231 	"/>
</g>
<g id="hdmileft">
	<polygon id="XMLID_95_" class="st12" points="76.595,130.58 76.604,126.15 88.586,120.565 88.586,125.135 	"/>
	<path id="XMLID_89_" class="st13" d="M77.98,128.979c2.932-1.496,5.864-2.993,8.795-4.489c2.789,1.979,5.578,3.957,8.367,5.936
		c-2.953,1.486-5.905,2.972-8.858,4.458C83.516,132.916,80.748,130.948,77.98,128.979z"/>
	<polygon id="XMLID_88_" class="st12" points="87.854,137.993 87.863,133.564 99.845,127.979 99.845,132.548 	"/>
	<linearGradient id="XMLID_119_" gradientUnits="userSpaceOnUse" x1="76.6296" y1="127.0534" x2="99.8451" y2="127.0534">
		<stop  offset="0" style="stop-color:#FFFFFF"/>
		<stop  offset="1" style="stop-color:#808285"/>
	</linearGradient>
	<path id="XMLID_87_" class="st14" d="M76.63,126.167c3.966-1.874,7.932-3.749,11.897-5.623c3.773,2.479,7.545,4.957,11.318,7.436
		c-3.994,1.862-7.988,3.723-11.982,5.585C84.119,131.098,80.374,128.632,76.63,126.167z"/>
	<path id="XMLID_76_" class="st15" d="M77.054,126.841c3.495,2.299,6.99,4.598,10.486,6.898c0,1.188,0,2.377,0,3.565
		c-3.495-2.324-6.99-4.648-10.486-6.972V126.841z"/>
	<line id="XMLID_74_" class="st16" x1="78.194" y1="129.218" x2="86.109" y2="134.661"/>
</g>
<g id="hdmiright">
	<polygon id="XMLID_103_" class="st12" points="93.85,141.976 93.859,137.547 105.841,131.962 105.841,136.531 	"/>
	<path id="XMLID_102_" class="st13" d="M95.235,140.376c2.932-1.496,5.864-2.993,8.795-4.489c2.789,1.979,5.578,3.957,8.367,5.936
		c-2.953,1.486-5.905,2.972-8.858,4.458C100.771,144.312,98.003,142.344,95.235,140.376z"/>
	<polygon id="XMLID_101_" class="st12" points="105.109,149.389 105.118,144.96 117.1,139.375 117.1,143.945 	"/>
	<linearGradient id="XMLID_120_" gradientUnits="userSpaceOnUse" x1="93.8843" y1="138.4499" x2="117.0998" y2="138.4499">
		<stop  offset="0" style="stop-color:#FFFFFF"/>
		<stop  offset="1" style="stop-color:#808285"/>
	</linearGradient>
	<path id="XMLID_100_" class="st17" d="M93.884,137.563c3.966-1.874,7.932-3.749,11.897-5.623c3.773,2.479,7.545,4.957,11.318,7.436
		c-3.994,1.862-7.988,3.723-11.982,5.585C101.373,142.494,97.629,140.029,93.884,137.563z"/>
	<path id="XMLID_98_" class="st15" d="M94.309,138.238c3.495,2.299,6.99,4.598,10.486,6.898c0,1.188,0,2.377,0,3.565
		c-3.495-2.324-6.99-4.648-10.486-6.972V138.238z"/>
	<line id="XMLID_96_" class="st16" x1="95.448" y1="140.615" x2="103.364" y2="146.058"/>
</g>
<g id="usbc">
	<polygon id="XMLID_66_" class="st12" points="52.199,114.652 52.212,108.259 69.506,100.198 69.506,106.794 	"/>
	<path id="XMLID_75_" class="st13" d="M54.198,112.342c4.232-2.16,8.463-4.319,12.695-6.479c4.026,2.856,8.051,5.711,12.077,8.567
		c-4.262,2.145-8.523,4.29-12.785,6.435C62.189,118.024,58.194,115.183,54.198,112.342z"/>
	<polygon id="XMLID_42_" class="st12" points="68.45,125.352 68.463,118.959 85.758,110.898 85.758,117.494 	"/>
	<linearGradient id="XMLID_121_" gradientUnits="userSpaceOnUse" x1="52.2491" y1="109.5627" x2="85.7576" y2="109.5627">
		<stop  offset="0" style="stop-color:#FFFFFF"/>
		<stop  offset="1" style="stop-color:#808285"/>
	</linearGradient>
	<path id="XMLID_40_" class="st18" d="M52.249,108.283c5.724-2.706,11.448-5.411,17.172-8.117
		c5.445,3.577,10.891,7.155,16.336,10.732c-5.765,2.687-11.53,5.374-17.294,8.061C63.058,115.4,57.654,111.841,52.249,108.283z"/>
	<path id="XMLID_67_" class="st15" d="M52.861,109.257c5.045,3.319,10.09,6.637,15.135,9.956c0,1.715,0,3.431,0,5.146
		c-5.045-3.354-10.09-6.709-15.135-10.063V109.257z"/>
	<line id="XMLID_68_" class="st16" x1="54.506" y1="112.688" x2="65.932" y2="120.543"/>
</g>
<g id="ethernet">
	<path id="XMLID_58_" class="st19" d="M229.979,150.455c6.207-2.8,12.414-5.6,18.621-8.4c7.131,4.361,14.262,8.721,21.393,13.082
		c-6.319,2.994-12.638,5.989-18.956,8.983C244.018,159.565,236.998,155.01,229.979,150.455z"/>
	<path id="XMLID_57_" class="st20" d="M249.552,128.557c0.131,4.717,0.262,9.435,0.393,14.152
		c6.177,3.988,12.354,7.975,18.531,11.963c-0.04-4.617-0.08-9.234-0.12-13.852C262.087,136.732,255.82,132.645,249.552,128.557z"/>
	<g id="XMLID_51_">
		<g id="XMLID_83_">
			<path id="XMLID_84_" class="st21" d="M269.271,138.484l-0.05,11.925l-0.02,4.844l-20.073,9.77l-0.168-16.641l6.831-3.329
				L269.271,138.484 M271.284,135.278c-8.112,3.954-16.225,7.907-24.337,11.861l0.213,21.067l24.035-11.699
				C271.225,149.431,271.255,142.354,271.284,135.278L271.284,135.278z"/>
		</g>
	</g>
	<g id="XMLID_56_">
		<g id="XMLID_91_">
			<path id="XMLID_92_" class="st22" d="M268.049,140.575l-0.335,13.709l-0.285,0.135l-3.766,1.786l-0.839,0.398l-0.018,0.928
				l-0.01,0.506l-4.413,2.247l-1.349,0.687l-0.027-1.547l-2.142,1.097l-3.203,1.641l-1.037,0.531l-0.057-7.544l-0.044-5.713
				l9.446-4.778L268.049,140.575 M269.61,138.104c-6.864,3.472-13.728,6.943-20.592,10.415c0.042,5.54,0.084,11.08,0.127,16.619
				c2.135-1.094,4.27-2.188,6.405-3.281c0.009,0.513,0.018,1.027,0.027,1.54c2.9-1.477,5.801-2.954,8.701-4.432
				c0.009-0.468,0.018-0.937,0.027-1.405c1.629-0.773,3.257-1.545,4.886-2.318C269.331,149.53,269.47,143.817,269.61,138.104
				L269.61,138.104z"/>
		</g>
	</g>
	<path id="XMLID_53_" class="st20" d="M218.883,128.057c0.203,7.247,0.406,14.494,0.609,21.74
		c9.217,6.136,18.434,12.272,27.65,18.408c-0.067-7.093-0.135-14.186-0.202-21.279C237.588,140.637,228.235,134.347,218.883,128.057
		z"/>
	<linearGradient id="XMLID_122_" gradientUnits="userSpaceOnUse" x1="218.8832" y1="132.1815" x2="271.2844" y2="132.1815">
		<stop  offset="0" style="stop-color:#FFFFFF"/>
		<stop  offset="1" style="stop-color:#808285"/>
	</linearGradient>
	<path id="XMLID_52_" class="st23" d="M218.883,128.119c8.094-3.623,16.189-7.246,24.283-10.869
		c9.373,5.955,18.745,11.909,28.118,17.864c-8.085,4-16.17,7.999-24.255,11.999C237.647,140.782,228.265,134.45,218.883,128.119z"/>
</g>
<g id="usbright">
	<path id="XMLID_55_" class="st19" d="M189.994,163.809c7.972-3.421,15.943-6.841,23.915-10.262
		c9.189,5.512,18.379,11.025,27.568,16.537c-8.085,4-16.17,7.999-24.255,11.999C208.145,175.993,199.07,169.901,189.994,163.809z"/>
	<g id="XMLID_49_">
		<path id="XMLID_54_" d="M189.553,151.96l19.865-7.662l29.997,19.044c-6.323,3.128-12.647,6.256-18.97,9.385
			C210.148,165.805,199.851,158.882,189.553,151.96z"/>
		<path id="XMLID_50_" class="st24" d="M218.127,171.209c0.772,0.5,1.545,1,2.317,1.499c6.288-3.171,12.576-6.342,18.864-9.512
			c-0.02,0.932-0.04,1.865-0.061,2.797c-6.252,3.085-12.504,6.171-18.755,9.256c-0.275-0.109-0.578-0.247-0.896-0.421l-1.06-0.698
			c0,0,0.046-0.769-0.002-1.244C218.464,172.195,218.291,171.626,218.127,171.209z"/>
	</g>
	<path id="XMLID_48_" class="st19" d="M190.168,153.809c7.943-3.739,15.885-7.479,23.828-11.218
		c9.141,5.861,18.283,11.722,27.424,17.582c-8.085,4-16.17,7.999-24.255,11.999C208.165,166.051,199.166,159.93,190.168,153.809z"/>
	<g id="XMLID_45_">
		<path id="XMLID_47_" d="M189.216,142.288l19.865-7.662l29.997,19.044c-6.323,3.128-12.647,6.256-18.97,9.385
			C209.81,156.133,199.513,149.211,189.216,142.288z"/>
		<path id="XMLID_46_" class="st24" d="M217.789,161.538c0.772,0.5,1.545,1,2.317,1.499c6.288-3.171,12.576-6.342,18.864-9.512
			c-0.02,0.932-0.04,1.865-0.061,2.797c-6.252,3.085-12.504,6.171-18.755,9.256c-0.275-0.109-0.578-0.247-0.896-0.421l-1.06-0.698
			c0,0,0.046-0.769-0.002-1.244C218.127,162.524,217.953,161.955,217.789,161.538z"/>
	</g>
	<linearGradient id="XMLID_123_" gradientUnits="userSpaceOnUse" x1="189.0372" y1="146.0446" x2="241.4384" y2="146.0446">
		<stop  offset="0" style="stop-color:#FFFFFF"/>
		<stop  offset="1" style="stop-color:#808285"/>
	</linearGradient>
	<path id="XMLID_44_" class="st25" d="M189.037,141.982c8.094-3.623,16.189-7.246,24.283-10.869
		c9.373,5.955,18.745,11.909,28.118,17.864c-8.085,4-16.17,7.999-24.255,11.999C207.801,154.645,198.419,148.313,189.037,141.982z"
		/>
	<path id="XMLID_43_" class="st20" d="M189.124,142.069c0.203,7.247,0.406,14.494,0.609,21.74
		c9.217,6.136,18.434,12.272,27.65,18.408c-0.067-7.093-0.135-14.186-0.202-21.279C207.829,154.649,198.476,148.359,189.124,142.069
		z"/>
	<polygon id="XMLID_41_" class="st21" points="217.628,171.38 241.282,159.478 241.282,160.8 217.628,172.47 	"/>
	<g id="XMLID_36_">
		<g id="XMLID_78_">
			<path id="XMLID_79_" class="st21" d="M240.364,150.572l-0.06,14.47l-0.02,4.737l-21.908,10.838l-0.189-19.061l11.532-5.712
				L240.364,150.572 M241.37,148.958c-8.063,3.994-16.126,7.988-24.189,11.981l0.212,21.281l23.889-11.818
				C241.311,163.254,241.341,156.106,241.37,148.958L241.37,148.958z"/>
		</g>
	</g>
</g>
<g id="usbleft">
	<path id="XMLID_29_" class="st19" d="M158.994,179.809c7.972-3.421,15.943-6.841,23.915-10.262
		c9.189,5.512,18.379,11.025,27.568,16.537c-8.085,4-16.17,7.999-24.255,11.999C177.145,191.993,168.07,185.901,158.994,179.809z"/>
	<g id="XMLID_37_">
		<path id="XMLID_39_" d="M158.553,167.96l19.865-7.662l29.997,19.044c-6.323,3.128-12.647,6.256-18.97,9.385
			C179.148,181.805,168.851,174.882,158.553,167.96z"/>
		<path id="XMLID_38_" class="st24" d="M187.127,187.209c0.772,0.5,1.545,1,2.317,1.499c6.288-3.171,12.576-6.342,18.864-9.512
			c-0.02,0.932-0.04,1.865-0.061,2.797c-6.252,3.085-12.504,6.171-18.755,9.256c-0.275-0.109-0.578-0.247-0.896-0.421l-1.06-0.698
			c0,0,0.046-0.769-0.002-1.244C187.464,188.195,187.291,187.626,187.127,187.209z"/>
	</g>
	<path id="XMLID_27_" class="st19" d="M159.168,169.809c7.943-3.739,15.885-7.479,23.828-11.218
		c9.141,5.861,18.283,11.722,27.424,17.582c-8.085,4-16.17,7.999-24.255,11.999C177.165,182.051,168.166,175.93,159.168,169.809z"/>
	<g id="XMLID_31_">
		<path id="XMLID_30_" d="M158.216,158.288l19.865-7.662l29.997,19.044c-6.323,3.128-12.647,6.256-18.97,9.385
			C178.81,172.133,168.513,165.211,158.216,158.288z"/>
		<path id="XMLID_28_" class="st24" d="M186.789,177.538c0.772,0.5,1.545,1,2.317,1.499c6.288-3.171,12.576-6.342,18.864-9.512
			c-0.02,0.932-0.04,1.865-0.061,2.797c-6.252,3.085-12.504,6.171-18.755,9.256c-0.275-0.109-0.578-0.247-0.896-0.421l-1.06-0.698
			c0,0,0.046-0.769-0.002-1.244C187.127,178.524,186.953,177.955,186.789,177.538z"/>
	</g>
	<linearGradient id="XMLID_124_" gradientUnits="userSpaceOnUse" x1="158.0372" y1="162.0446" x2="210.4384" y2="162.0446">
		<stop  offset="0" style="stop-color:#FFFFFF"/>
		<stop  offset="1" style="stop-color:#808285"/>
	</linearGradient>
	<path id="XMLID_23_" class="st26" d="M158.037,157.982c8.094-3.623,16.189-7.246,24.283-10.869
		c9.373,5.955,18.745,11.909,28.118,17.864c-8.085,4-16.17,7.999-24.255,11.999C176.801,170.645,167.419,164.313,158.037,157.982z"
		/>
	<path id="XMLID_24_" class="st20" d="M158.124,158.069c0.203,7.247,0.406,14.494,0.609,21.74
		c9.217,6.136,18.434,12.272,27.65,18.408c-0.067-7.093-0.135-14.186-0.202-21.279C176.829,170.649,167.476,164.359,158.124,158.069
		z"/>
	<polygon id="XMLID_25_" class="st21" points="186.628,187.38 210.282,175.478 210.282,176.8 186.628,188.47 	"/>
	<g id="XMLID_26_">
		<g id="XMLID_70_">
			<path id="XMLID_71_" class="st21" d="M209.364,166.572l-0.047,11.255l-0.033,7.953l-21.908,10.838l-0.189-19.061L209.364,166.572
				 M210.37,164.958c-8.063,3.994-16.126,7.988-24.189,11.981l0.212,21.281l23.889-11.818
				C210.311,179.254,210.341,172.106,210.37,164.958L210.37,164.958z"/>
		</g>
	</g>
</g>
</svg>
