<?xml version="1.0" encoding="utf-8"?>
<!-- Generator: Adobe Illustrator 19.0.0, SVG Export Plug-In . SVG Version: 6.00 Build 0)  -->
<svg version="1.1" id="Layer_1" xmlns="http://www.w3.org/2000/svg" xmlns:xlink="http://www.w3.org/1999/xlink" x="0px" y="0px"
	 viewBox="0 0 288 288" style="enable-background:new 0 0 288 288;" xml:space="preserve">
<style type="text/css">
	.st0{fill:url(#XMLID_7_);}
	.st1{fill:url(#XMLID_8_);}
	.st2{fill:url(#XMLID_9_);}
	.st3{fill:url(#XMLID_10_);}
	.st4{fill:url(#XMLID_11_);}
	.st5{opacity:0.44;fill:#F16641;}
	.st6{opacity:0.44;fill:#F68F6B;}
	.st7{opacity:0.65;fill:url(#XMLID_12_);}
	.st8{opacity:0.6;fill:url(#XMLID_13_);}
	.st9{opacity:0.6;fill:url(#XMLID_14_);}
</style>
<g id="Layer_1">
	<g id="XMLID_43_">
		<radialGradient id="XMLID_7_" cx="161.6665" cy="109.1911" r="100.6341" gradientUnits="userSpaceOnUse">
			<stop  offset="0" style="stop-color:#FACAA1"/>
			<stop  offset="0.1842" style="stop-color:#F9BA8A"/>
			<stop  offset="0.5519" style="stop-color:#F79D66"/>
			<stop  offset="0.836" style="stop-color:#F68D4F"/>
			<stop  offset="1" style="stop-color:#F68646"/>
		</radialGradient>
		<path id="XMLID_48_" class="st0" d="M94.357,166.824c-10.411,6.12-20.566,12.088-20.339,19.825
			c0.45,15.363,41.589,29.4,77.621,26.906c22.265-1.541,54.115-10.192,55.206-24.074c0.708-9.006-11.785-16.986-19.924-22.186
			C158.579,149.192,122.562,150.246,94.357,166.824z"/>
		<radialGradient id="XMLID_8_" cx="161.6665" cy="109.1911" r="100.6341" gradientUnits="userSpaceOnUse">
			<stop  offset="0" style="stop-color:#FACAA1"/>
			<stop  offset="0.1842" style="stop-color:#F9BA8A"/>
			<stop  offset="0.5519" style="stop-color:#F79D66"/>
			<stop  offset="0.836" style="stop-color:#F68D4F"/>
			<stop  offset="1" style="stop-color:#F68646"/>
		</radialGradient>
		<path id="XMLID_47_" class="st1" d="M94.357,165.284c-10.411,5.381-20.566,10.63-20.339,17.434
			c0.45,13.51,41.589,25.853,77.621,23.66c22.265-1.355,54.115-8.962,55.206-21.169c0.708-7.92-11.785-14.937-19.924-19.509
			C158.579,149.778,122.562,150.705,94.357,165.284z"/>
		<radialGradient id="XMLID_9_" cx="161.6665" cy="109.1911" r="100.6341" gradientUnits="userSpaceOnUse">
			<stop  offset="0" style="stop-color:#FACAA1"/>
			<stop  offset="0.1842" style="stop-color:#F9BA8A"/>
			<stop  offset="0.5519" style="stop-color:#F79D66"/>
			<stop  offset="0.836" style="stop-color:#F68D4F"/>
			<stop  offset="1" style="stop-color:#F68646"/>
		</radialGradient>
		<path id="XMLID_46_" class="st2" d="M84.816,145.959c-8.182-42.579-13.488-70.192,3.571-96.429
			c2.681-4.123,22.471-34.558,54.592-34.184c29.359,0.342,47.663,26.175,51.531,31.633c21.953,30.982,13.483,67.366,6.122,98.98
			c-6.945,29.832-16.418,37.403-20.918,40.306c-9.329,6.018-19.402,6.236-37.755,6.633c-18.862,0.408-28.785,0.622-37.755-5.102
			C97.516,183.528,90.472,175.392,84.816,145.959z"/>
		<radialGradient id="XMLID_10_" cx="161.6665" cy="109.1911" r="100.6341" gradientUnits="userSpaceOnUse">
			<stop  offset="0" style="stop-color:#FACAA1"/>
			<stop  offset="0.1842" style="stop-color:#F9BA8A"/>
			<stop  offset="0.5519" style="stop-color:#F79D66"/>
			<stop  offset="0.836" style="stop-color:#F68D4F"/>
			<stop  offset="1" style="stop-color:#F68646"/>
		</radialGradient>
		<path id="XMLID_45_" class="st3" d="M139.264,164.586c3.635-3.316,7.27-6.632,10.905-9.948c8.291-0.195,16.581-0.39,24.872-0.584
			c-0.055,36.819-0.11,73.638-0.165,110.457c-1.11,0-2.22,0-3.329,0c-0.026-30.163-0.052-60.327-0.077-90.49
			c-6.973-0.084-13.945-0.168-20.918-0.252C146.789,170.708,143.027,167.647,139.264,164.586z"/>
		<radialGradient id="XMLID_11_" cx="161.6665" cy="109.1911" r="100.6341" gradientUnits="userSpaceOnUse">
			<stop  offset="0" style="stop-color:#FACAA1"/>
			<stop  offset="0.1842" style="stop-color:#F9BA8A"/>
			<stop  offset="0.5519" style="stop-color:#F79D66"/>
			<stop  offset="0.836" style="stop-color:#F68D4F"/>
			<stop  offset="1" style="stop-color:#F68646"/>
		</radialGradient>
		<path id="XMLID_44_" class="st4" d="M107.694,154.053c12.118,0.003,24.236,0.007,36.353,0.01
			c-3.762,3.571-7.525,7.142-11.287,10.713c4.081,3.189,8.163,6.377,12.244,9.566c-11.076-0.107-22.152-0.215-33.228-0.322v104.592
			h-4.082V154.053z"/>
	</g>
	<g id="XMLID_37_">
		<path id="XMLID_42_" class="st5" d="M94.357,166.824c-10.411,6.12-20.566,12.088-20.339,19.825
			c0.45,15.363,41.589,29.4,77.621,26.906c22.265-1.541,54.115-10.192,55.206-24.074c0.708-9.006-11.785-16.986-19.924-22.186
			C158.579,149.192,122.562,150.246,94.357,166.824z"/>
		<path id="XMLID_41_" class="st6" d="M94.357,165.284c-10.411,5.381-20.566,10.63-20.339,17.434
			c0.45,13.51,41.589,25.853,77.621,23.66c22.265-1.355,54.115-8.962,55.206-21.169c0.708-7.92-11.785-14.937-19.924-19.509
			C158.579,149.778,122.562,150.705,94.357,165.284z"/>
		<radialGradient id="XMLID_12_" cx="162.7513" cy="78.701" r="70.5357" gradientUnits="userSpaceOnUse">
			<stop  offset="0" style="stop-color:#FACAA1"/>
			<stop  offset="0.3259" style="stop-color:#F7A87D"/>
			<stop  offset="1" style="stop-color:#F26641"/>
		</radialGradient>
		<path id="XMLID_40_" class="st7" d="M84.816,145.959c-8.182-42.579-13.488-70.192,3.571-96.429
			c2.681-4.123,22.471-34.558,54.592-34.184c29.359,0.342,47.663,26.175,51.531,31.633c21.953,30.982,13.483,67.366,6.122,98.98
			c-6.945,29.832-16.418,37.403-20.918,40.306c-9.329,6.018-19.402,6.236-37.755,6.633c-18.862,0.408-28.785,0.622-37.755-5.102
			C97.516,183.528,90.472,175.392,84.816,145.959z"/>
		<linearGradient id="XMLID_13_" gradientUnits="userSpaceOnUse" x1="175.0408" y1="209.2821" x2="139.2644" y2="209.2821">
			<stop  offset="0" style="stop-color:#58595B"/>
			<stop  offset="0.1297" style="stop-color:#646567"/>
			<stop  offset="1" style="stop-color:#A7A9AC"/>
		</linearGradient>
		<path id="XMLID_39_" class="st8" d="M139.264,164.586c3.635-3.316,7.27-6.632,10.905-9.948c8.291-0.195,16.581-0.39,24.872-0.584
			c-0.055,36.819-0.11,73.638-0.165,110.457c-1.11,0-2.22,0-3.329,0c-0.026-30.163-0.052-60.327-0.077-90.49
			c-6.973-0.084-13.945-0.168-20.918-0.252C146.789,170.708,143.027,167.647,139.264,164.586z"/>
		<linearGradient id="XMLID_14_" gradientUnits="userSpaceOnUse" x1="107.6939" y1="216.3328" x2="145.0037" y2="216.3328">
			<stop  offset="0" style="stop-color:#58595B"/>
			<stop  offset="0.1297" style="stop-color:#646567"/>
			<stop  offset="1" style="stop-color:#A7A9AC"/>
		</linearGradient>
		<path id="XMLID_38_" class="st9" d="M107.694,154.053c12.118,0.003,24.236,0.007,36.353,0.01
			c-3.762,3.571-7.525,7.142-11.287,10.713c4.081,3.189,8.163,6.377,12.244,9.566c-11.076-0.107-22.152-0.215-33.228-0.322v104.592
			h-4.082V154.053z"/>
	</g>
</g>
</svg>
