<?xml version="1.0" encoding="utf-8"?>
<!-- Generator: Adobe Illustrator 19.0.0, SVG Export Plug-In . SVG Version: 6.00 Build 0)  -->
<svg version="1.1" id="Layer_1" xmlns="http://www.w3.org/2000/svg" xmlns:xlink="http://www.w3.org/1999/xlink" x="0px" y="0px"
	 viewBox="0 0 288 288" style="enable-background:new 0 0 288 288;" xml:space="preserve">
<style type="text/css">
	.st0{fill:none;stroke:#000000;stroke-width:3;stroke-linecap:round;stroke-miterlimit:10;}
	.st1{fill:#F16385;}
	.st2{fill:#D83162;}
	.st3{fill:#E1416C;}
	.st4{fill:#D83162;stroke:#8E1835;stroke-width:6;stroke-linecap:round;stroke-miterlimit:10;}
</style>
<path id="XMLID_7_" class="st0" d="M156.245,134.323c14.941,11.899,20.37,24.099,22.575,30.727
	c4.08,12.263,3.491,24.587,2.508,45.15c-0.327,6.848-0.848,12.49-1.254,16.304"/>
<path id="XMLID_5_" class="st0" d="M113.845,151.527c-4.612,11.823-9.297,27.052-11.915,45.15
	c-3.688,25.497-1.908,47.256,0.627,62.708"/>
<polygon id="XMLID_1_" class="st1" points="68.875,64.596 133.987,18.622 207.665,56.848 143.839,100.755 "/>
<polygon id="XMLID_2_" class="st2" points="68.875,64.596 143.839,100.755 143.839,194.251 68.875,159.126 "/>
<polygon id="XMLID_3_" class="st3" points="207.665,56.848 207.665,144.662 143.839,194.251 143.839,100.755 "/>
<line id="XMLID_4_" class="st4" x1="113.42" y1="61.482" x2="138.27" y2="43.291"/>
<line id="XMLID_6_" class="st4" x1="138.27" y1="73.691" x2="163.121" y2="55.5"/>
</svg>
